HIERARCHY
ROOT Hips
{
    OFFSET 0.000000 0.000000 0.000000
    CHANNELS 6 Xposition Yposition Zposition Zrotation Xrotation Yrotation
    JOINT Spine
    {
        OFFSET -0.000000 7.583482 0.000000
        CHANNELS 3 Zrotation Xrotation Yrotation
        JOINT Spine1
        {
            OFFSET -0.000000 19.647881 0.000000
            CHANNELS 3 Zrotation Xrotation Yrotation
            JOINT Neck
            {
                OFFSET -0.000000 19.567190 1.778835
                CHANNELS 3 Zrotation Xrotation Yrotation
                JOINT Head
                {
                    OFFSET -0.000000 12.947408 -1.849630
                    CHANNELS 3 Zrotation Xrotation Yrotation
                    End Site
                    {
                        OFFSET -0.000000 23.120371 0.000000
                    }
                }
            }
            JOINT LeftShoulder
            {
                OFFSET 3.632882 16.008181 -0.342244
                CHANNELS 3 Zrotation Xrotation Yrotation
                JOINT LeftArm
                {
                    OFFSET 15.804684 0.000000 0.000000
                    CHANNELS 3 Zrotation Xrotation Yrotation
                    JOINT LeftForeArm
                    {
                        OFFSET 25.677923 0.000000 0.000000
                        CHANNELS 3 Zrotation Xrotation Yrotation
                        JOINT LeftHand
                        {
                            OFFSET 26.158810 0.000000 0.000000
                            CHANNELS 3 Zrotation Xrotation Yrotation
                            End Site
                            {
                                OFFSET 13.872223 0.000000 0.000000
                            }
                        }
                    }
                }
            }
            JOINT RightShoulder
            {
                OFFSET -3.700243 16.008181 -0.342244
                CHANNELS 3 Zrotation Xrotation Yrotation
                JOINT RightArm
                {
                    OFFSET -15.804684 0.000000 0.000000
                    CHANNELS 3 Zrotation Xrotation Yrotation
                    JOINT RightForeArm
                    {
                        OFFSET -25.677923 0.000000 0.000000
                        CHANNELS 3 Zrotation Xrotation Yrotation
                        JOINT RightHand
                        {
                            OFFSET -26.158810 0.000000 0.000000
                            CHANNELS 3 Zrotation Xrotation Yrotation
                            End Site
                            {
                                OFFSET -13.872223 0.000000 0.000000
                            }
                        }
                    }
                }
            }
        }
    }
    JOINT LeftUpLeg
    {
        OFFSET 9.248149 0.000000 0.000000
        CHANNELS 3 Zrotation Xrotation Yrotation
        JOINT LeftLeg
        {
            OFFSET -0.000000 -43.254459 0.000000
            CHANNELS 3 Zrotation Xrotation Yrotation
            JOINT LeftFoot
            {
                OFFSET -0.000000 -33.301838 0.000000
                CHANNELS 3 Zrotation Xrotation Yrotation
                JOINT LeftToeBase
                {
                    OFFSET -0.000000 -6.011296 13.872223
                    CHANNELS 3 Zrotation Xrotation Yrotation
                    End Site
                    {
                        OFFSET -0.000000 0.000000 3.699259
                    }
                }
            }
        }
    }
    JOINT RightUpLeg
    {
        OFFSET -9.248149 0.000000 0.000000
        CHANNELS 3 Zrotation Xrotation Yrotation
        JOINT RightLeg
        {
            OFFSET -0.000000 -43.254459 0.000000
            CHANNELS 3 Zrotation Xrotation Yrotation
            JOINT RightFoot
            {
                OFFSET -0.000000 -33.301838 0.000000
                CHANNELS 3 Zrotation Xrotation Yrotation
                JOINT RightToeBase
                {
                    OFFSET -0.000000 -6.011296 13.872223
                    CHANNELS 3 Zrotation Xrotation Yrotation
                    End Site
                    {
                        OFFSET -0.000000 0.000000 3.699259
                    }
                }
            }
        }
    }
}
MOTION
Frames:    9
Frame Time:    0.010000
-23.179363    83.732590    -67.166290    2.644960    -5.419358    -170.954453    13.970262    -7.896749    -0.693242    -11.826832    -1.627958    -1.830925    -16.627493    20.514872    1.275421    14.265668    -22.239120    5.376380    -0.133176    20.307171    5.991380    -41.609249    62.180046    -23.726936    10.037960    -31.186064    -25.249195    -9.113754    -29.475018    3.409621    -1.160226    21.622919    2.483137    30.925125    56.327141    55.116608    -8.543248    -22.264008    5.089010    -2.064919    -21.825830    -5.122396    18.130592    -8.967381    -0.925427    -9.606827    6.524368    8.512081    -1.631693    -7.848038    -0.406056    0.000000    0.000000    0.000000    -7.588217    -3.223174    -1.607608    4.387081    2.901994    6.164117    8.574689    -6.257921    -26.617702    0.000000    0.000000    0.000000    
-23.200029    83.733185    -67.166962    2.634955    -5.431734    -170.992249    13.969832    -7.939824    -0.668571    -11.849129    -1.560016    -1.804822    -16.543837    20.578714    1.277950    14.095031    -22.363718    5.329844    -0.128797    20.303608    5.949115    -41.595787    62.245792    -23.699524    9.966785    -31.249510    -25.297401    -9.056234    -29.550735    3.445900    -1.177398    21.653004    2.500982    31.008259    56.229759    55.084179    -8.498353    -22.213308    5.089432    -2.060875    -21.777203    -5.110349    18.101889    -8.959031    -0.910269    -9.591022    6.525401    8.476518    -1.614345    -7.851191    -0.388889    0.000000    0.000000    0.000000    -7.608766    -3.195859    -1.671661    4.385584    2.678546    5.104297    8.695914    -5.808036    -25.672260    0.000000    0.000000    0.000000    
-23.221197    83.733681    -67.165916    2.619465    -5.435555    -171.018066    13.957758    -7.956692    -0.657455    -11.864405    -1.537730    -1.792793    -16.582008    20.622553    1.272510    14.120729    -22.382378    5.326252    -0.117573    20.310085    5.908020    -41.609257    62.297546    -23.670389    9.891467    -31.349182    -25.290159    -9.052805    -29.667273    3.443362    -1.195937    21.668489    2.559650    30.963779    56.267525    55.100437    -8.519929    -22.251944    5.093257    -1.994348    -21.818090    -5.076632    18.069895    -8.942407    -0.918265    -9.584339    6.512135    8.512624    -1.608038    -7.870417    -0.394507    0.000000    0.000000    0.000000    -7.644285    -3.207412    -1.704711    4.393301    2.691320    5.118476    8.693617    -5.804473    -25.625195    0.000000    0.000000    0.000000    
-23.243805    83.737389    -67.162094    2.603005    -5.431197    -171.035110    13.953601    -7.969082    -0.643046    -11.905863    -1.510302    -1.777322    -16.552784    20.691235    1.268400    14.073734    -22.438162    5.303112    -0.084035    20.332264    5.846693    -41.650791    62.237690    -23.640480    9.765824    -31.299799    -25.240639    -9.119488    -29.621754    3.074771    -1.184425    21.692417    2.584533    30.855446    56.297112    55.155472    -8.505583    -22.306330    5.152244    -1.981846    -21.868704    -5.136632    18.043369    -8.924551    -0.955566    -9.596507    6.493677    8.545014    -1.592255    -7.888152    -0.347350    0.000000    0.000000    0.000000    -7.678830    -3.199992    -1.728612    4.405032    2.687361    5.129836    8.711430    -5.786129    -25.625351    0.000000    0.000000    0.000000    
-23.264372    83.734581    -67.156441    2.587088    -5.437183    -171.047684    13.929297    -7.968218    -0.630916    -11.917974    -1.511414    -1.763666    -16.625805    20.717289    1.257134    14.178998    -22.423843    5.317607    -0.077462    20.341034    5.794868    -41.582748    62.294472    -23.675766    9.773271    -30.858095    -25.252167    -9.074742    -29.162205    2.976774    -1.156509    21.701223    2.604774    30.839304    56.308285    55.096519    -8.483179    -22.314178    5.209520    -1.965889    -21.874155    -5.141856    18.009396    -8.925653    -0.946080    -9.589281    6.496116    8.544274    -1.592725    -7.909279    -0.347920    0.000000    0.000000    0.000000    -7.711798    -3.221662    -1.779027    4.405679    2.704640    5.105869    8.755766    -5.764724    -25.565708    0.000000    0.000000    0.000000    
-23.282593    83.736679    -67.151588    2.565902    -5.448324    -171.059692    13.901456    -7.987909    -0.621692    -11.944859    -1.488199    -1.752796    -16.578190    20.775597    1.248749    14.116023    -22.473064    5.286214    -0.051466    20.355587    5.756407    -41.520824    62.303112    -23.723360    9.706636    -30.879236    -25.269741    -9.076526    -29.197245    3.001874    -1.129366    21.733856    2.631569    30.691912    56.332512    55.150299    -8.475622    -22.376169    5.281797    -1.992416    -21.929935    -5.181398    17.973812    -8.929761    -0.954553    -9.589803    6.485821    8.526626    -1.567959    -7.893080    -0.323897    0.000000    0.000000    0.000000    -7.753187    -3.241971    -1.804414    4.409935    2.734831    5.224414    8.759666    -5.794495    -25.626312    0.000000    0.000000    0.000000    
-23.305809    83.736580    -67.149971    2.557184    -5.442529    -171.068573    13.906740    -8.000746    -0.606295    -11.978705    -1.456002    -1.736398    -16.575388    20.797836    1.247658    14.104636    -22.474211    5.277944    -0.031160    20.353861    5.684157    -41.517944    62.274399    -23.706127    9.642130    -30.876904    -25.277691    -9.064413    -29.207821    3.018348    -1.125416    21.738827    2.642955    30.669729    56.338238    55.146873    -8.451537    -22.351681    5.297080    -2.057252    -21.902332    -5.199612    17.951157    -8.917016    -0.962388    -9.581430    6.513297    8.475169    -1.559385    -7.957283    -0.330128    0.000000    0.000000    0.000000    -7.771609    -3.254222    -1.851626    4.396362    2.772050    5.207466    8.755832    -5.774043    -25.554056    0.000000    0.000000    0.000000    
-23.326965    83.739128    -67.141579    2.548744    -5.451398    -171.076080    13.900123    -8.022112    -0.604715    -11.979991    -1.429590    -1.734228    -16.604935    20.801085    1.253334    14.094116    -22.444727    5.274979    -0.048047    20.354452    5.657353    -41.444355    62.261822    -23.734814    9.572474    -30.853302    -25.331144    -9.025956    -29.198063    3.097728    -1.180849    21.754208    2.684123    30.683697    56.314121    55.149139    -8.440801    -22.329472    5.293591    -2.071118    -21.880079    -5.205882    17.923559    -8.929865    -0.935604    -9.584914    6.492617    8.534767    -1.528265    -7.922981    -0.349039    0.000000    0.000000    0.000000    -7.798416    -3.290041    -1.867054    4.402048    2.831707    5.281273    8.782950    -5.813349    -25.594660    0.000000    0.000000    0.000000    
-23.348635    83.742775    -67.136658    2.538054    -5.438453    -171.088303    13.900551    -8.007932    -0.603694    -12.013059    -1.429808    -1.731921    -16.645634    20.830677    1.263113    14.151166    -22.442116    5.297387    -0.041023    20.356314    5.622291    -41.459431    62.258942    -23.689014    9.553607    -30.879103    -25.340551    -9.004277    -29.225245    3.075121    -1.188606    21.756891    2.717312    30.647062    56.342541    55.157387    -8.452211    -22.352098    5.277385    -2.034565    -21.905687    -5.160666    17.893543    -8.913776    -0.864133    -9.567563    6.509183    8.487972    -1.514520    -7.922470    -0.362305    0.000000    0.000000    0.000000    -7.821113    -3.282989    -1.840980    4.400109    2.830818    5.193570    8.758962    -5.771227    -25.539686    0.000000    0.000000    0.000000    
